<svg width="30" height="30" viewBox="0 0 30 30" fill="none" xmlns="http://www.w3.org/2000/svg">
<path d="M21.8375 7.58745C20.5339 7.61038 19.278 8.08146 18.2809 8.92147C17.2838 9.76149 16.6064 10.9192 16.3625 12.2C15.1384 10.2974 14.1796 8.23672 13.5125 6.07495H10.6875V13.575C10.6875 14.2844 10.4057 14.9648 9.90401 15.4665C9.40235 15.9681 8.72195 16.25 8.0125 16.25C7.30305 16.25 6.62265 15.9681 6.12099 15.4665C5.61933 14.9648 5.3375 14.2844 5.3375 13.575V6.07495L2.5 6.13745V13.6375C2.50829 15.0961 3.0957 16.4918 4.13301 17.5174C5.17032 18.543 6.57256 19.1145 8.03125 19.1062C9.48994 19.0979 10.8856 18.5105 11.9112 17.4732C12.9368 16.4359 13.5083 15.0336 13.5 13.575V12.325C14.0997 13.5013 14.7893 14.6296 15.5625 15.7L13.8375 23.9625H16.7375L17.9875 17.95C19.146 18.6944 20.498 19.0814 21.875 19.0625C23.3901 19.0625 24.843 18.4606 25.9143 17.3893C26.9857 16.318 27.5875 14.865 27.5875 13.35C27.5875 11.8349 26.9857 10.3819 25.9143 9.3106C24.843 8.2393 23.3901 7.63745 21.875 7.63745L21.8375 7.58745ZM21.8375 16.125C20.6629 16.087 19.5373 15.6456 18.65 14.875L18.9375 13.7375V13.675C19.1375 12.425 19.7625 10.425 21.875 10.425C22.2454 10.4217 22.6128 10.4916 22.9561 10.6306C23.2994 10.7697 23.6118 10.9752 23.8755 11.2354C24.1391 11.4956 24.3488 11.8053 24.4925 12.1467C24.6361 12.4881 24.7109 12.8545 24.7125 13.225C24.6857 13.9749 24.38 14.6879 23.8552 15.2243C23.3303 15.7606 22.6242 16.0818 21.875 16.125H21.8375Z" fill="white"/>
</svg>
