<svg width="848" height="1008" viewBox="0 0 848 1008" fill="none" xmlns="http://www.w3.org/2000/svg">
<g filter="url(#filter0_f_124_49)">
<path fill-rule="evenodd" clip-rule="evenodd" d="M-84.0079 497.341C-208.118 434.031 -363.984 381.156 -397.787 245.948C-432.208 108.263 -351.774 -43.3343 -241.548 -132.813C-148.775 -208.124 -17.0701 -151.595 102.09 -159.84C195.828 -166.326 284.55 -207.506 372.804 -175.322C490.239 -132.496 648.347 -81.0778 659.588 43.4665C670.914 168.942 495.155 215.551 417.007 314.418C350.027 399.156 343.132 535.118 241.695 572.153C132.874 611.884 19.1396 549.957 -84.0079 497.341Z" stroke="url(#paint0_linear_124_49)"/>
<path fill-rule="evenodd" clip-rule="evenodd" d="M-80.1632 520.017C-204.273 456.707 -360.14 403.833 -393.942 268.624C-428.363 130.939 -347.929 -20.6579 -237.703 -110.137C-144.93 -185.448 -13.2254 -128.919 105.935 -137.164C199.673 -143.65 288.394 -184.83 376.649 -152.646C494.084 -109.82 652.192 -58.4014 663.433 66.1429C674.758 191.619 499 238.227 420.851 337.094C353.872 421.832 346.977 557.794 245.54 594.829C136.718 634.561 22.9843 572.633 -80.1632 520.017Z" stroke="url(#paint1_linear_124_49)"/>
<path fill-rule="evenodd" clip-rule="evenodd" d="M-75.9845 544.665C-200.095 481.356 -355.961 428.481 -389.763 293.272C-424.185 155.588 -343.75 3.99025 -233.524 -85.4885C-140.751 -160.799 -9.04664 -104.27 110.113 -112.515C203.852 -119.001 292.573 -160.182 380.828 -127.997C498.263 -85.1717 656.371 -33.7532 667.612 90.791C678.937 216.267 503.178 262.875 425.03 361.743C358.05 446.48 351.155 582.443 249.719 619.477C140.897 659.209 27.163 597.282 -75.9845 544.665Z" stroke="url(#paint2_linear_124_49)"/>
<path fill-rule="evenodd" clip-rule="evenodd" d="M-72.1387 567.342C-196.249 504.032 -352.115 451.157 -385.918 315.949C-420.339 178.264 -339.905 26.6666 -229.679 -62.8121C-136.906 -138.123 -5.20094 -81.594 113.959 -89.839C207.697 -96.3251 296.419 -137.505 384.673 -105.321C502.108 -62.4953 660.217 -11.0768 671.458 113.467C682.783 238.943 507.024 285.552 428.876 384.419C361.896 469.157 355.001 605.119 253.565 642.154C144.743 681.885 31.0087 619.958 -72.1387 567.342Z" stroke="url(#paint3_linear_124_49)"/>
<path fill-rule="evenodd" clip-rule="evenodd" d="M-68.963 586.074C-193.073 522.765 -348.939 469.89 -382.742 334.681C-417.163 196.996 -336.729 45.3992 -226.503 -44.0796C-133.73 -119.39 -2.02516 -62.8614 117.135 -71.1065C210.873 -77.5926 299.594 -118.773 387.849 -86.5885C505.284 -43.7628 663.392 7.65576 674.633 132.2C685.959 257.676 510.2 304.284 432.052 403.151C365.072 487.889 358.177 623.851 256.74 660.886C147.919 700.618 34.1845 638.691 -68.963 586.074Z" stroke="url(#paint4_linear_124_49)"/>
<path fill-rule="evenodd" clip-rule="evenodd" d="M-66.2882 601.849C-190.398 538.539 -346.265 485.665 -380.067 350.456C-414.488 212.771 -334.054 61.1741 -223.828 -28.3047C-131.055 -103.615 0.649645 -47.0865 119.81 -55.3316C213.548 -61.8177 302.269 -102.998 390.524 -70.8136C507.959 -27.9878 666.067 23.4307 677.308 147.975C688.633 273.451 512.875 320.059 434.726 418.926C367.747 503.664 360.852 639.626 259.415 676.661C150.593 716.393 36.8593 654.465 -66.2882 601.849Z" stroke="url(#paint5_linear_124_49)"/>
<path fill-rule="evenodd" clip-rule="evenodd" d="M-63.1124 620.582C-187.223 557.272 -343.089 504.397 -376.891 369.189C-411.313 231.504 -330.878 79.9068 -220.652 -9.57203C-127.879 -84.8828 3.82543 -28.3539 122.985 -36.5989C216.724 -43.085 305.445 -84.2653 393.7 -52.081C511.135 -9.25518 669.243 42.1633 680.484 166.708C691.809 292.183 516.05 338.792 437.902 437.659C370.922 522.397 364.027 658.359 262.591 695.394C153.769 735.125 40.0351 673.198 -63.1124 620.582Z" stroke="url(#paint6_linear_124_49)"/>
<path fill-rule="evenodd" clip-rule="evenodd" d="M-60.6046 635.371C-184.715 572.061 -340.581 519.186 -374.383 383.978C-408.805 246.293 -328.37 94.6956 -218.144 5.21679C-125.372 -70.094 6.33324 -13.565 125.493 -21.8101C219.232 -28.2962 307.953 -69.4765 396.208 -37.2921C513.643 5.53364 671.751 56.9521 682.992 181.496C694.317 306.972 518.558 353.581 440.41 452.448C373.43 537.186 366.535 673.148 265.099 710.183C156.277 749.914 42.5429 687.987 -60.6046 635.371Z" stroke="url(#paint7_linear_124_49)"/>
<path fill-rule="evenodd" clip-rule="evenodd" d="M-76.3448 650.211C-200.455 586.901 -356.321 534.026 -390.124 398.818C-424.545 261.133 -344.111 109.536 -233.885 20.057C-141.112 -55.2538 -9.407 1.27516 109.753 -6.9699C203.491 -13.456 292.213 -54.6363 380.467 -22.4519C497.902 20.3738 656.011 71.7924 667.252 196.337C678.577 321.812 502.818 368.421 424.67 467.288C357.69 552.026 350.795 687.988 249.359 725.023C140.537 764.754 26.8027 702.827 -76.3448 650.211Z" stroke="url(#paint8_linear_124_49)"/>
<path fill-rule="evenodd" clip-rule="evenodd" d="M-92.754 661.107C-216.864 597.798 -372.73 544.923 -406.533 409.714C-440.954 272.03 -360.52 120.432 -250.294 30.9535C-157.521 -44.3573 -25.8162 12.1716 93.3438 3.92659C187.082 -2.55948 275.803 -43.7398 364.058 -11.5555C481.493 31.2703 639.601 82.6888 650.842 207.233C662.167 332.709 486.409 379.317 408.261 478.185C341.281 562.922 334.386 698.885 232.949 735.919C124.128 775.651 10.3935 713.724 -92.754 661.107Z" stroke="url(#paint9_linear_124_49)"/>
</g>
<defs>
<filter id="filter0_f_124_49" x="-430.083" y="-202.977" width="1129.1" height="967.041" filterUnits="userSpaceOnUse" color-interpolation-filters="sRGB">
<feFlood flood-opacity="0" result="BackgroundImageFix"/>
<feBlend mode="normal" in="SourceGraphic" in2="BackgroundImageFix" result="shape"/>
<feGaussianBlur stdDeviation="7.5" result="effect1_foregroundBlur_124_49"/>
</filter>
<linearGradient id="paint0_linear_124_49" x1="69.2703" y1="961.493" x2="-679.554" y2="423.536" gradientUnits="userSpaceOnUse">
<stop stop-color="#FFD319"/>
<stop offset="0.505208" stop-color="#F222FF"/>
<stop offset="1" stop-color="#8C1EFF"/>
</linearGradient>
<linearGradient id="paint1_linear_124_49" x1="73.1151" y1="984.169" x2="-675.709" y2="446.213" gradientUnits="userSpaceOnUse">
<stop stop-color="#FFD319"/>
<stop offset="0.505208" stop-color="#F222FF"/>
<stop offset="1" stop-color="#8C1EFF"/>
</linearGradient>
<linearGradient id="paint2_linear_124_49" x1="77.2938" y1="1008.82" x2="-671.53" y2="470.861" gradientUnits="userSpaceOnUse">
<stop stop-color="#FFD319"/>
<stop offset="0.505208" stop-color="#F222FF"/>
<stop offset="1" stop-color="#8C1EFF"/>
</linearGradient>
<linearGradient id="paint3_linear_124_49" x1="81.1395" y1="1031.49" x2="-667.685" y2="493.537" gradientUnits="userSpaceOnUse">
<stop stop-color="#FFD319"/>
<stop offset="0.505208" stop-color="#F222FF"/>
<stop offset="1" stop-color="#8C1EFF"/>
</linearGradient>
<linearGradient id="paint4_linear_124_49" x1="84.3153" y1="1050.23" x2="-664.509" y2="512.27" gradientUnits="userSpaceOnUse">
<stop stop-color="#FFD319"/>
<stop offset="0.505208" stop-color="#F222FF"/>
<stop offset="1" stop-color="#8C1EFF"/>
</linearGradient>
<linearGradient id="paint5_linear_124_49" x1="86.9901" y1="1066" x2="-661.834" y2="528.045" gradientUnits="userSpaceOnUse">
<stop stop-color="#FFD319"/>
<stop offset="0.505208" stop-color="#F222FF"/>
<stop offset="1" stop-color="#8C1EFF"/>
</linearGradient>
<linearGradient id="paint6_linear_124_49" x1="90.1659" y1="1084.73" x2="-658.658" y2="546.777" gradientUnits="userSpaceOnUse">
<stop stop-color="#FFD319"/>
<stop offset="0.505208" stop-color="#F222FF"/>
<stop offset="1" stop-color="#8C1EFF"/>
</linearGradient>
<linearGradient id="paint7_linear_124_49" x1="92.6737" y1="1099.52" x2="-656.151" y2="561.566" gradientUnits="userSpaceOnUse">
<stop stop-color="#FFD319"/>
<stop offset="0.505208" stop-color="#F222FF"/>
<stop offset="1" stop-color="#8C1EFF"/>
</linearGradient>
<linearGradient id="paint8_linear_124_49" x1="76.9334" y1="1114.36" x2="-671.891" y2="576.406" gradientUnits="userSpaceOnUse">
<stop stop-color="#FFD319"/>
<stop offset="0.505208" stop-color="#F222FF"/>
<stop offset="1" stop-color="#8C1EFF"/>
</linearGradient>
<linearGradient id="paint9_linear_124_49" x1="60.5242" y1="1125.26" x2="-688.3" y2="587.303" gradientUnits="userSpaceOnUse">
<stop stop-color="#FFD319"/>
<stop offset="0.505208" stop-color="#F222FF"/>
<stop offset="1" stop-color="#8C1EFF"/>
</linearGradient>
</defs>
</svg>
