<svg width="960" height="1794" viewBox="0 0 960 1794" fill="none" xmlns="http://www.w3.org/2000/svg">
<g filter="url(#filter0_f_124_50)">
<path fill-rule="evenodd" clip-rule="evenodd" d="M787.453 1211.47C650.935 1183.64 486.607 1174.36 417.888 1053.11C347.911 929.638 384.89 762.055 467.183 646.365C536.446 548.994 678.469 568.255 791.088 528.454C879.68 497.144 954.163 433.744 1047.81 441.163C1172.42 451.035 1338.52 458.314 1382.65 575.32C1427.1 693.201 1270.2 785.1 1221.33 901.261C1179.44 1000.82 1209.15 1133.68 1121.3 1196.48C1027.06 1263.86 900.913 1234.59 787.453 1211.47Z" stroke="url(#paint0_linear_124_50)"/>
<path fill-rule="evenodd" clip-rule="evenodd" d="M797.221 1232.29C660.703 1204.46 496.374 1195.18 427.656 1073.93C357.679 950.461 394.658 782.878 476.951 667.188C546.213 569.817 688.237 589.078 800.855 549.277C889.448 517.967 963.931 454.567 1057.58 461.986C1182.19 471.858 1348.29 479.137 1392.41 596.143C1436.87 714.024 1279.97 805.923 1231.1 922.084C1189.21 1021.64 1218.91 1154.5 1131.07 1217.31C1036.83 1284.68 910.68 1255.42 797.221 1232.29Z" stroke="url(#paint1_linear_124_50)"/>
<path fill-rule="evenodd" clip-rule="evenodd" d="M807.837 1254.92C671.319 1227.1 506.99 1217.82 438.272 1096.57C368.295 973.094 405.274 805.512 487.567 689.822C556.829 592.451 698.853 611.712 811.471 571.911C900.064 540.601 974.547 477.201 1068.19 484.62C1192.8 494.492 1358.9 501.771 1403.03 618.777C1447.49 736.658 1290.59 828.557 1241.71 944.718C1199.83 1044.28 1229.53 1177.13 1141.69 1239.94C1047.45 1307.32 921.297 1278.05 807.837 1254.92Z" stroke="url(#paint2_linear_124_50)"/>
<path fill-rule="evenodd" clip-rule="evenodd" d="M817.605 1275.75C681.087 1247.92 516.758 1238.64 448.04 1117.39C378.062 993.918 415.041 826.335 497.334 710.645C566.597 613.274 708.62 632.535 821.239 592.734C909.832 561.424 984.315 498.024 1077.96 505.443C1202.57 515.315 1368.67 522.594 1412.8 639.6C1457.26 757.481 1300.35 849.38 1251.48 965.541C1209.59 1065.1 1239.3 1197.96 1151.45 1260.76C1057.21 1328.14 931.064 1298.87 817.605 1275.75Z" stroke="url(#paint3_linear_124_50)"/>
<path fill-rule="evenodd" clip-rule="evenodd" d="M825.673 1292.95C689.155 1265.12 524.826 1255.84 456.108 1134.59C386.131 1011.12 423.11 843.537 505.403 727.847C574.665 630.475 716.689 649.737 829.307 609.936C917.9 578.626 992.383 515.226 1086.03 522.645C1210.64 532.517 1376.74 539.796 1420.87 656.802C1465.32 774.683 1308.42 866.582 1259.55 982.743C1217.66 1082.3 1247.37 1215.16 1159.52 1277.96C1065.28 1345.34 939.133 1316.07 825.673 1292.95Z" stroke="url(#paint4_linear_124_50)"/>
<path fill-rule="evenodd" clip-rule="evenodd" d="M832.468 1307.43C695.95 1279.61 531.621 1270.33 462.903 1149.08C392.926 1025.6 429.905 858.022 512.198 742.333C581.46 644.961 723.484 664.223 836.102 624.422C924.695 593.112 999.178 529.712 1092.82 537.131C1217.43 547.003 1383.53 554.281 1427.66 671.287C1472.12 789.168 1315.22 881.068 1266.34 997.228C1224.46 1096.79 1254.16 1229.65 1166.32 1292.45C1072.08 1359.83 945.928 1330.56 832.468 1307.43Z" stroke="url(#paint5_linear_124_50)"/>
<path fill-rule="evenodd" clip-rule="evenodd" d="M840.536 1324.64C704.018 1296.81 539.69 1287.53 470.971 1166.28C400.994 1042.81 437.973 875.224 520.266 759.534C589.529 662.163 731.552 681.424 844.171 641.623C932.763 610.313 1007.25 546.913 1100.89 554.332C1225.5 564.204 1391.6 571.483 1435.73 688.489C1480.19 806.37 1323.29 898.269 1274.41 1014.43C1232.52 1113.99 1262.23 1246.85 1174.39 1309.65C1080.15 1377.03 953.996 1347.76 840.536 1324.64Z" stroke="url(#paint6_linear_124_50)"/>
<path fill-rule="evenodd" clip-rule="evenodd" d="M846.906 1338.22C710.388 1310.39 546.06 1301.11 477.341 1179.86C407.364 1056.39 444.343 888.804 526.636 773.114C595.899 675.743 737.922 695.005 850.541 655.204C939.133 623.894 1013.62 560.494 1107.26 567.913C1231.87 577.785 1397.97 585.063 1442.1 702.069C1486.56 819.95 1329.66 911.85 1280.78 1028.01C1238.89 1127.57 1268.6 1260.43 1180.76 1323.23C1086.52 1390.61 960.366 1361.34 846.906 1338.22Z" stroke="url(#paint7_linear_124_50)"/>
<path fill-rule="evenodd" clip-rule="evenodd" d="M835.706 1356.72C699.188 1328.9 534.86 1319.62 466.141 1198.37C396.164 1074.89 433.143 907.312 515.436 791.623C584.699 694.251 726.722 713.513 839.341 673.712C927.933 642.402 1002.42 579.002 1096.06 586.421C1220.67 596.293 1386.77 603.571 1430.9 720.577C1475.36 838.458 1318.46 930.358 1269.58 1046.52C1227.69 1146.08 1257.4 1278.94 1169.56 1341.74C1075.32 1409.12 949.166 1379.85 835.706 1356.72Z" stroke="url(#paint8_linear_124_50)"/>
<path fill-rule="evenodd" clip-rule="evenodd" d="M822.807 1371.61C686.289 1343.78 521.96 1334.5 453.242 1213.25C383.265 1089.78 420.244 922.199 502.536 806.509C571.799 709.138 713.823 728.399 826.441 688.598C915.034 657.288 989.517 593.888 1083.16 601.307C1207.77 611.179 1373.87 618.458 1418 735.464C1462.46 853.345 1305.56 945.244 1256.68 1061.41C1214.8 1160.96 1244.5 1293.82 1156.66 1356.63C1062.42 1424 936.266 1394.74 822.807 1371.61Z" stroke="url(#paint9_linear_124_50)"/>
</g>
<defs>
<filter id="filter0_f_124_50" x="365.513" y="425.065" width="1099.93" height="988.698" filterUnits="userSpaceOnUse" color-interpolation-filters="sRGB">
<feFlood flood-opacity="0" result="BackgroundImageFix"/>
<feBlend mode="normal" in="SourceGraphic" in2="BackgroundImageFix" result="shape"/>
<feGaussianBlur stdDeviation="7.5" result="effect1_foregroundBlur_124_50"/>
</filter>
<linearGradient id="paint0_linear_124_50" x1="1059.24" y1="1617.75" x2="193.853" y2="1299.56" gradientUnits="userSpaceOnUse">
<stop stop-color="#FFD319"/>
<stop offset="0.505208" stop-color="#F222FF"/>
<stop offset="1" stop-color="#8C1EFF"/>
</linearGradient>
<linearGradient id="paint1_linear_124_50" x1="1069.01" y1="1638.57" x2="203.62" y2="1320.38" gradientUnits="userSpaceOnUse">
<stop stop-color="#FFD319"/>
<stop offset="0.505208" stop-color="#F222FF"/>
<stop offset="1" stop-color="#8C1EFF"/>
</linearGradient>
<linearGradient id="paint2_linear_124_50" x1="1079.62" y1="1661.2" x2="214.237" y2="1343.02" gradientUnits="userSpaceOnUse">
<stop stop-color="#FFD319"/>
<stop offset="0.505208" stop-color="#F222FF"/>
<stop offset="1" stop-color="#8C1EFF"/>
</linearGradient>
<linearGradient id="paint3_linear_124_50" x1="1089.39" y1="1682.03" x2="224.004" y2="1363.84" gradientUnits="userSpaceOnUse">
<stop stop-color="#FFD319"/>
<stop offset="0.505208" stop-color="#F222FF"/>
<stop offset="1" stop-color="#8C1EFF"/>
</linearGradient>
<linearGradient id="paint4_linear_124_50" x1="1097.46" y1="1699.23" x2="232.073" y2="1381.04" gradientUnits="userSpaceOnUse">
<stop stop-color="#FFD319"/>
<stop offset="0.505208" stop-color="#F222FF"/>
<stop offset="1" stop-color="#8C1EFF"/>
</linearGradient>
<linearGradient id="paint5_linear_124_50" x1="1104.25" y1="1713.71" x2="238.867" y2="1395.53" gradientUnits="userSpaceOnUse">
<stop stop-color="#FFD319"/>
<stop offset="0.505208" stop-color="#F222FF"/>
<stop offset="1" stop-color="#8C1EFF"/>
</linearGradient>
<linearGradient id="paint6_linear_124_50" x1="1112.32" y1="1730.92" x2="246.936" y2="1412.73" gradientUnits="userSpaceOnUse">
<stop stop-color="#FFD319"/>
<stop offset="0.505208" stop-color="#F222FF"/>
<stop offset="1" stop-color="#8C1EFF"/>
</linearGradient>
<linearGradient id="paint7_linear_124_50" x1="1118.69" y1="1744.5" x2="253.306" y2="1426.31" gradientUnits="userSpaceOnUse">
<stop stop-color="#FFD319"/>
<stop offset="0.505208" stop-color="#F222FF"/>
<stop offset="1" stop-color="#8C1EFF"/>
</linearGradient>
<linearGradient id="paint8_linear_124_50" x1="1107.49" y1="1763" x2="242.106" y2="1444.82" gradientUnits="userSpaceOnUse">
<stop stop-color="#FFD319"/>
<stop offset="0.505208" stop-color="#F222FF"/>
<stop offset="1" stop-color="#8C1EFF"/>
</linearGradient>
<linearGradient id="paint9_linear_124_50" x1="1094.59" y1="1777.89" x2="229.206" y2="1459.7" gradientUnits="userSpaceOnUse">
<stop stop-color="#FFD319"/>
<stop offset="0.505208" stop-color="#F222FF"/>
<stop offset="1" stop-color="#8C1EFF"/>
</linearGradient>
</defs>
</svg>
