<svg width="35" height="35" viewBox="0 0 35 35" fill="none" xmlns="http://www.w3.org/2000/svg">
<path d="M32.5 20C25.5964 20 20 25.5964 20 32.5C20 33.163 19.7366 33.7989 19.2678 34.2678C18.7989 34.7366 18.163 35 17.5 35C16.837 35 16.2011 34.7366 15.7322 34.2678C15.2634 33.7989 15 33.163 15 32.5C15 25.5964 9.40356 20 2.5 20C1.83696 20 1.20107 19.7366 0.732234 19.2678C0.263393 18.7989 0 18.163 0 17.5C0 16.837 0.263393 16.2011 0.732234 15.7322C1.20107 15.2634 1.83696 15 2.5 15C9.40356 15 15 9.40356 15 2.5C15 1.83696 15.2634 1.20107 15.7322 0.732232C16.2011 0.263391 16.837 0 17.5 0C18.163 0 18.7989 0.263391 19.2678 0.732232C19.7366 1.20107 20 1.83696 20 2.5C20 9.40356 25.5964 15 32.5 15C33.163 15 33.7989 15.2634 34.2678 15.7322C34.7366 16.2011 35 16.837 35 17.5C35 18.163 34.7366 18.7989 34.2678 19.2678C33.7989 19.7366 33.163 20 32.5 20Z" fill="#222222"/>
</svg>
